<?xml version="1.0" encoding="iso-8859-1"?>
<!-- Generator: Adobe Illustrator 19.0.0, SVG Export Plug-In . SVG Version: 6.00 Build 0)  -->
<svg version="1.1" id="Capa_1" xmlns="http://www.w3.org/2000/svg" xmlns:xlink="http://www.w3.org/1999/xlink" x="0px" y="0px"
	 viewBox="0 0 480 480" style="enable-background:new 0 0 480 480;" xml:space="preserve">
<path style="fill:#ECEFF1;" d="M448,16H32C14.368,16,0,30.368,0,48v384c0,17.664,14.368,32,32,32h416c17.664,0,32-14.336,32-32V48
	C480,30.368,465.664,16,448,16z"/>
<path style="fill:#F44336;" d="M256,400c-6.592,0-12.544-4.032-14.944-10.24l-64.864-168.704l-33.216,88.576
	c-2.24,5.952-7.808,10.016-14.144,10.336c-6.272,0.864-12.32-3.136-15.168-8.8L86.112,256H0v-32h96
	c6.048,0,11.584,3.424,14.304,8.832l15.584,31.2l35.104-93.664c2.368-6.208,8.288-10.336,14.944-10.368
	c7.136,0.448,12.64,4.064,15.008,10.24l60.96,158.496l52.48-236.224c1.504-6.72,7.136-11.744,14.016-12.448
	c6.88-0.64,13.408,3.136,16.224,9.408L394.4,224H480v32h-96c-6.304,0-12.064-3.712-14.624-9.504l-44.288-99.648l-53.472,240.608
	c-1.536,6.912-7.392,11.968-14.432,12.512C256.768,400,256.384,400,256,400z"/>
<g>
</g>
<g>
</g>
<g>
</g>
<g>
</g>
<g>
</g>
<g>
</g>
<g>
</g>
<g>
</g>
<g>
</g>
<g>
</g>
<g>
</g>
<g>
</g>
<g>
</g>
<g>
</g>
<g>
</g>
</svg>
